<svg xmlns="http://www.w3.org/2000/svg" viewBox="0 0 360 780">
  <defs>
    <linearGradient id="gradient-step-2" x1="0%" y1="0%" x2="100%" y2="100%">
      <stop offset="0%" stop-color="#818cf8" />
      <stop offset="100%" stop-color="#312e81" />
    </linearGradient>
  </defs>
  <rect width="360" height="780" fill="url(#gradient-step-2)" />
  <g opacity="0.18" fill="#eef2ff">
    <circle cx="90" cy="140" r="40" />
    <circle cx="280" cy="112" r="24" />
    <circle cx="306" cy="620" r="36" />
    <circle cx="72" cy="520" r="28" />
  </g>
  <g transform="translate(36 120)">
    <rect width="288" height="104" rx="28" fill="rgba(15,23,42,0.55)" />
    <rect x="24" y="24" width="128" height="16" rx="8" fill="#c7d2fe" opacity="0.95" />
    <rect x="24" y="54" width="168" height="12" rx="6" fill="#e0e7ff" opacity="0.9" />
    <rect x="24" y="78" width="96" height="10" rx="5" fill="#c7d2fe" opacity="0.85" />
    <circle cx="244" cy="52" r="24" fill="#f1f5f9" opacity="0.92" />
    <circle cx="244" cy="52" r="10" fill="#818cf8" opacity="0.85" />
  </g>
  <g transform="translate(28 268)">
    <rect width="304" height="332" rx="32" fill="rgba(15,23,42,0.55)" />
    <rect x="36" y="48" width="232" height="20" rx="10" fill="#c7d2fe" opacity="0.95" />
    <rect x="36" y="84" width="184" height="12" rx="6" fill="#e0e7ff" opacity="0.85" />
    <rect x="36" y="112" width="148" height="12" rx="6" fill="#c7d2fe" opacity="0.8" />
    <rect x="36" y="152" width="232" height="16" rx="8" fill="#f8fafc" opacity="0.92" />
    <g transform="translate(36 196)">
      <rect width="232" height="88" rx="20" fill="rgba(248,250,252,0.95)" />
      <rect x="20" y="20" width="128" height="14" rx="7" fill="#312e81" opacity="0.8" />
      <rect x="20" y="46" width="96" height="10" rx="5" fill="#94a3ff" opacity="0.7" />
      <rect x="20" y="66" width="112" height="10" rx="5" fill="#c7d2fe" opacity="0.7" />
      <rect x="168" y="28" width="44" height="44" rx="12" fill="#818cf8" opacity="0.9" />
    </g>
    <g transform="translate(36 296)">
      <rect width="152" height="12" rx="6" fill="#c7d2fe" opacity="0.7" />
      <rect x="168" width="68" height="12" rx="6" fill="#a5b4fc" opacity="0.6" />
    </g>
  </g>
  <g transform="translate(56 648)" opacity="0.9">
    <rect width="248" height="60" rx="24" fill="rgba(15,23,42,0.45)" />
    <rect x="24" y="18" width="152" height="14" rx="7" fill="#eef2ff" opacity="0.9" />
    <rect x="24" y="40" width="112" height="10" rx="5" fill="#c7d2fe" opacity="0.85" />
    <circle cx="210" cy="30" r="14" fill="#818cf8" />
    <circle cx="238" cy="30" r="14" fill="#6366f1" />
  </g>
</svg>
