<svg xmlns="http://www.w3.org/2000/svg" viewBox="0 0 360 780">
  <defs>
    <linearGradient id="gradient-step-3" x1="0%" y1="0%" x2="100%" y2="100%">
      <stop offset="0%" stop-color="#f472b6" />
      <stop offset="100%" stop-color="#312e81" />
    </linearGradient>
  </defs>
  <rect width="360" height="780" fill="url(#gradient-step-3)" />
  <g opacity="0.12" fill="#fee2e2">
    <circle cx="96" cy="160" r="44" />
    <circle cx="284" cy="132" r="36" />
    <circle cx="284" cy="556" r="42" />
    <circle cx="80" cy="620" r="32" />
  </g>
  <g transform="translate(24 128)">
    <rect width="312" height="104" rx="32" fill="rgba(15,23,42,0.4)" />
    <rect x="28" y="30" width="152" height="16" rx="8" fill="#fce7f3" opacity="0.95" />
    <rect x="28" y="60" width="118" height="12" rx="6" fill="#fbcfe8" opacity="0.8" />
    <circle cx="256" cy="52" r="26" fill="#f8fafc" opacity="0.9" />
    <circle cx="256" cy="52" r="12" fill="#f472b6" opacity="0.8" />
  </g>
  <g transform="translate(36 272)">
    <rect width="288" height="320" rx="36" fill="rgba(15,23,42,0.55)" />
    <g transform="translate(28 40)">
      <rect width="232" height="56" rx="18" fill="rgba(248,250,252,0.95)" />
      <circle cx="28" cy="28" r="16" fill="#f472b6" opacity="0.9" />
      <rect x="60" y="16" width="108" height="12" rx="6" fill="#312e81" opacity="0.75" />
      <rect x="60" y="36" width="132" height="10" rx="5" fill="#c4b5fd" opacity="0.6" />
      <rect x="196" y="20" width="24" height="24" rx="6" fill="#f472b6" opacity="0.85" />
    </g>
    <g transform="translate(28 116)">
      <rect width="232" height="56" rx="18" fill="rgba(248,250,252,0.9)" />
      <circle cx="28" cy="28" r="16" fill="#f8fafc" opacity="0.85" />
      <rect x="60" y="16" width="108" height="12" rx="6" fill="#f9a8d4" opacity="0.9" />
      <rect x="60" y="36" width="132" height="10" rx="5" fill="#ffe4e6" opacity="0.7" />
      <rect x="196" y="20" width="24" height="24" rx="6" fill="#f472b6" opacity="0.6" />
    </g>
    <g transform="translate(28 192)">
      <rect width="232" height="56" rx="18" fill="rgba(248,250,252,0.88)" />
      <circle cx="28" cy="28" r="16" fill="#f8fafc" opacity="0.85" />
      <rect x="60" y="16" width="132" height="12" rx="6" fill="#fdf2f8" opacity="0.7" />
      <rect x="60" y="36" width="104" height="10" rx="5" fill="#fbcfe8" opacity="0.6" />
      <rect x="196" y="20" width="24" height="24" rx="6" fill="#f472b6" opacity="0.5" />
    </g>
    <g transform="translate(28 268)">
      <rect width="164" height="12" rx="6" fill="#fbcfe8" opacity="0.65" />
      <rect x="180" width="80" height="12" rx="6" fill="#fdf2f8" opacity="0.5" />
    </g>
  </g>
  <g transform="translate(60 660)" opacity="0.95">
    <rect width="240" height="56" rx="22" fill="rgba(15,23,42,0.4)" />
    <rect x="24" y="18" width="120" height="12" rx="6" fill="#fce7f3" opacity="0.95" />
    <rect x="24" y="36" width="96" height="10" rx="5" fill="#fbcfe8" opacity="0.8" />
    <circle cx="202" cy="28" r="14" fill="#f472b6" />
    <circle cx="230" cy="28" r="14" fill="#ec4899" />
  </g>
</svg>
