<?xml version="1.0" encoding="UTF-8"?>
<svg version="1.1" xmlns="http://www.w3.org/2000/svg" width="1024" height="1024">
<path d="M0 0 C337.92 0 675.84 0 1024 0 C1024 337.92 1024 675.84 1024 1024 C686.08 1024 348.16 1024 0 1024 C0 686.08 0 348.16 0 0 Z " fill="#FCFCFC" transform="translate(0,0)"/>
<path d="M0 0 C0.71929688 0.31662598 1.43859375 0.63325195 2.1796875 0.95947266 C31.03163327 13.75220198 57.87502115 32.56894705 77 58 C77.87859391 59.12784755 78.75751821 60.25543777 79.63671875 61.3828125 C111.13988099 102.3950065 125.12117325 156.69738748 118.9375 207.8125 C113.72263917 244.87410984 96.02782172 279.67968091 78 312 C77.24202942 313.36840203 76.4842025 314.73688366 75.7265625 316.10546875 C67.24464482 331.35961867 58.40550135 346.4275358 49.38476562 361.36865234 C46.76409639 365.71225703 44.18283724 370.07799358 41.6105957 374.45043945 C35.89789345 384.15865606 30.1036743 393.81390131 24.25 403.4375 C23.69667496 404.3473616 23.69667496 404.3473616 23.13217163 405.27560425 C21.36305063 408.18444321 19.59346037 411.09299627 17.82373047 414.00146484 C10.01636222 426.83815786 2.41418953 439.78973136 -5.13085938 452.78222656 C-6.36527679 454.90730774 -7.60093026 457.03167145 -8.83789062 459.15527344 C-17.86288762 474.65347116 -26.64236099 490.27128769 -35.24971008 506.00386047 C-37.15847808 509.48641451 -39.09770391 512.94945383 -41.06640625 516.3984375 C-47.30165822 527.3752599 -52.48930571 538.62377956 -57.484375 550.21484375 C-59.55389785 555.00861406 -61.69264652 559.75344635 -64 564.4375 C-64.515625 565.48808594 -65.03125 566.53867187 -65.5625 567.62109375 C-67 570 -67 570 -70 572 C-72.875 572.4375 -72.875 572.4375 -76 572 C-80.68591331 568.15785243 -82.83096966 563.83447819 -85.25 558.4375 C-85.63639648 557.60250977 -86.02279297 556.76751953 -86.42089844 555.90722656 C-88.37481989 551.66501429 -90.26839827 547.39887918 -92.125 543.11328125 C-96.92750102 532.07987724 -102.40318673 521.66246549 -108.41796875 511.2421875 C-111.98931067 505.0550334 -115.43143104 498.80033127 -118.86257935 492.53497314 C-126.69938288 478.23431264 -134.78979983 464.08987764 -143 450 C-144.15106199 448.02084515 -145.30210398 446.04167867 -146.453125 444.0625 C-149.33894064 439.1049118 -152.23204639 434.15162278 -155.12841797 429.20019531 C-156.42766845 426.97862275 -157.72626971 424.75668286 -159.02392578 422.53417969 C-171.01402232 402.00036035 -183.06076317 381.50211189 -195.625 361.3125 C-206.67967772 343.52888801 -217.12368696 325.46366609 -227 307 C-227.67506592 305.74461426 -227.67506592 305.74461426 -228.36376953 304.46386719 C-242.54126841 278.06942095 -255.41162656 250.65236155 -261.54589844 221.15966797 C-261.83748326 219.77291562 -262.14176358 218.3887382 -262.46191406 217.00830078 C-268.19636148 191.98356858 -266.85934839 162.81180861 -261 138 C-260.79632813 137.09507812 -260.59265625 136.19015625 -260.3828125 135.2578125 C-255.5743803 114.30254625 -247.33957562 94.26636971 -236 76 C-235.06800781 74.47632813 -235.06800781 74.47632813 -234.1171875 72.921875 C-205.57626127 28.25950508 -157.87692538 -1.25096992 -106.71875 -13 C-70.79141058 -20.81029118 -33.30064222 -14.91875595 0 0 Z " fill="#FB900C" transform="translate(585,308)"/>
<path d="M0 0 C1.27165009 0.00276947 2.54330017 0.00553894 3.85348511 0.00839233 C22.78930505 0.05671582 41.58431747 0.37797084 60.4375 2.25 C61.51999023 2.35183594 62.60248047 2.45367187 63.71777344 2.55859375 C120.21845419 8.01824796 175.41727084 28.53249547 212.4375 73.25 C233.87108289 101.00467344 246.15029782 136.56964423 242.15625 171.72558594 C240.03714314 185.89109289 233.49090119 200.82509254 222.4375 210.25 C215.7422518 214.97803003 209.52056588 216.47349136 201.4375 215.25 C188.61777565 212.35693591 176.51766091 207.33135366 164.4375 202.25 C163.38095215 201.80736816 162.3244043 201.36473633 161.23583984 200.90869141 C97.51688538 174.13439724 97.51688538 174.13439724 91.31640625 160.84765625 C88.8265183 153.48865409 90.38075459 146.68650635 92.9375 139.5625 C95.50824138 132.38107308 96.98561216 127.25360594 93.75 120 C90.20407723 112.93733901 83.35373668 110.78776061 76.3125 108.39208984 C70.13710271 106.48771132 63.81826775 105.51081635 57.4375 104.5625 C56.20644531 104.36333984 54.97539063 104.16417969 53.70703125 103.95898438 C34.50285362 100.97362547 15.35941434 99.86633746 -4.0625 99.9375 C-5.62473801 99.94023422 -5.62473801 99.94023422 -7.21853638 99.94302368 C-54.72158355 98.60146379 -54.72158355 98.60146379 -97.3046875 114.72265625 C-100.42140871 118.16513645 -102.52566829 121.7178199 -102.59375 126.3984375 C-102.29295634 131.16601709 -101.32712201 135.0914992 -99.5 139.5 C-96.78377926 146.54020448 -95.84711868 154.47577499 -98.4453125 161.70703125 C-103.22754662 169.9888473 -111.42100312 174.60377485 -119.6875 178.8125 C-120.68104492 179.32353271 -121.67458984 179.83456543 -122.69824219 180.36108398 C-199.15308214 219.14807328 -199.15308214 219.14807328 -220.5625 215.25 C-230.07122998 212.10042067 -237.3885559 204.03484173 -241.9375 195.375 C-252.13615881 173.22611216 -250.79448722 147.05225764 -243.5625 124.25 C-243.34319824 123.5384375 -243.12389648 122.826875 -242.89794922 122.09375 C-236.38691451 101.49254355 -224.28663721 83.85396263 -209.5625 68.25 C-208.90121094 67.52425781 -208.23992187 66.79851562 -207.55859375 66.05078125 C-200.68404566 58.78489267 -192.67968194 53.03419223 -184.5625 47.25 C-183.94068848 46.80479004 -183.31887695 46.35958008 -182.67822266 45.90087891 C-144.33173083 18.6962249 -98.77052509 6.79247395 -52.5625 2.25 C-51.75662445 2.16741943 -50.9507489 2.08483887 -50.12045288 1.99975586 C-33.39457567 0.31448309 -16.80264749 -0.07182908 0 0 Z " fill="#FD9D10" transform="translate(514.5625,129.75)"/>
<path d="M0 0 C20.48865621 16.62581088 35.12809018 41.51046315 38.67211914 67.89672852 C38.93242789 72.29098813 39.00223499 76.67017146 38.98779297 81.07177734 C38.98465165 83.0636136 39.008907 85.05543158 39.03344727 87.04711914 C39.04711571 114.72571176 27.80831589 140.18694815 8.79711914 160.14672852 C-11.5288135 179.42201652 -39.260836 190.91765993 -67.39819336 190.17407227 C-91.88830539 188.44564488 -114.85240829 180.51055042 -133.32788086 163.89672852 C-133.83174316 163.4473291 -134.33560547 162.99792969 -134.85473633 162.53491211 C-151.07433264 147.86467945 -162.10835006 128.41039257 -166.32788086 106.89672852 C-166.53155273 106.00469727 -166.73522461 105.11266602 -166.94506836 104.19360352 C-172.47034882 77.09702261 -165.95737787 48.08842567 -151.32788086 24.89672852 C-134.67518186 -0.07177584 -110.53690696 -15.25836083 -81.57788086 -21.71655273 C-52.15245115 -25.21789593 -23.40735754 -18.41861874 0 0 Z " fill="#FCFBFB" transform="translate(575.327880859375,403.103271484375)"/>
<path d="M0 0 C0.66 0.33 1.32 0.66 2 1 C-8.60111875 20.80466236 -20.01120181 40.0088949 -32 59 C-33.29567565 56.4086487 -33.34250494 54.87704151 -33 52 C-31.23077265 49.92573346 -29.35115442 48.28844827 -27.25 46.5625 C-25.72570851 45.02240595 -25.72570851 45.02240595 -26.1875 42.625 C-26.125625 41.75875 -26.06375 40.8925 -26 40 C-24.01739574 38.31267723 -22.0167658 36.64633943 -20 35 C-19.04452419 32.32891902 -19.04452419 32.32891902 -19 30 C-18.01 30 -17.02 30 -16 30 C-15.01 26.7 -14.02 23.4 -13 20 C-12.34 20 -11.68 20 -11 20 C-10.67 18.02 -10.34 16.04 -10 14 C-9.01 14 -8.02 14 -7 14 C-6.34 11.03 -5.68 8.06 -5 5 C-4.34 5 -3.68 5 -3 5 C-2.87625 4.360625 -2.7525 3.72125 -2.625 3.0625 C-2.315625 2.0415625 -2.315625 2.0415625 -2 1 C-1.34 0.67 -0.68 0.34 0 0 Z " fill="#F5790C" transform="translate(659,622)"/>
<path d="M0 0 C1.21633335 3.64900005 0.68766821 4.41506061 -0.7734375 7.875 C-1.38590332 9.33945557 -1.38590332 9.33945557 -2.01074219 10.83349609 C-2.46094727 11.87844238 -2.91115234 12.92338867 -3.375 14 C-4.05804199 15.6080249 -4.05804199 15.6080249 -4.75488281 17.24853516 C-18.16117042 48.55309932 -18.16117042 48.55309932 -24 56 C-24.66 56 -25.32 56 -26 56 C-25.67 54.68 -25.34 53.36 -25 52 C-24.34 52 -23.68 52 -23 52 C-23.0928125 50.8553125 -23.0928125 50.8553125 -23.1875 49.6875 C-22.95787895 46.39626499 -22.24311683 46.24311683 -20 44 C-19.67 42.845 -19.34 41.69 -19 40.5 C-17.97141106 36.8999387 -17.47418008 36.44949998 -15 34 C-12.45588314 29.24675676 -10.58315061 24.14523949 -9 19 C-8.34 19 -7.68 19 -7 19 C-7.0825 18.319375 -7.165 17.63875 -7.25 16.9375 C-6.95225723 13.43902241 -5.76355315 11.57148421 -3.94921875 8.63671875 C-2.88163875 6.79591208 -2.44377317 5.07094148 -2 3 C-1.34 2.01 -0.68 1.02 0 0 Z " fill="#F47809" transform="translate(691,556)"/>
<path d="M0 0 C1 3 1 3 -0.49121094 6.4140625 C-1.22816364 7.82339197 -1.97672201 9.22669002 -2.734375 10.625 C-3.12820374 11.36830566 -3.52203247 12.11161133 -3.92779541 12.87744141 C-4.76380176 14.45014868 -5.60474302 16.02024104 -6.45019531 17.58789062 C-7.74176456 19.9847171 -9.0165673 22.38987788 -10.2890625 24.796875 C-11.10318532 26.32344043 -11.91825864 27.84949941 -12.734375 29.375 C-13.11575623 30.09381348 -13.49713745 30.81262695 -13.89007568 31.55322266 C-15.69234836 34.88024939 -17.29773096 37.29773096 -20 40 C-19.34 37.03 -18.68 34.06 -18 31 C-17.34 31 -16.68 31 -16 31 C-16.33 28.69 -16.66 26.38 -17 24 C-16.21625 23.9175 -15.4325 23.835 -14.625 23.75 C-11.90824733 23.26606675 -11.90824733 23.26606675 -10.6875 21.1875 C-9.8001156 18.74616953 -9.8001156 18.74616953 -10 15 C-9.01 15 -8.02 15 -7 15 C-7 14.34 -7 13.68 -7 13 C-7.99 13 -8.98 13 -10 13 C-9 11 -9 11 -6 10 C-4.83239824 7.93851026 -4.83239824 7.93851026 -3.9375 5.5 C-2.20492611 1.10246305 -2.20492611 1.10246305 0 0 Z " fill="#F4760C" transform="translate(554,801)"/>
<path d="M0 0 C-3.39630871 7.18570871 -8.02050908 11.85328002 -15.3203125 15.11328125 C-23.17263627 17.71164495 -30.38725939 15.884271 -38.125 13.75 C-38.88433838 13.54584473 -39.64367676 13.34168945 -40.42602539 13.13134766 C-42.5703125 12.484375 -42.5703125 12.484375 -46 11 C-46.71435547 8.90722656 -46.71435547 8.90722656 -47 7 C-45.3744659 7.81276705 -43.77619551 8.67989138 -42.1875 9.5625 C-39.07588923 10.96577545 -37.34320576 11.29498874 -34 11 C-34 11.66 -34 12.32 -34 13 C-24.81720024 14.26562306 -24.81720024 14.26562306 -16 12 C-15.01 11.67 -14.02 11.34 -13 11 C-13 10.34 -13 9.68 -13 9 C-11.68 9.33 -10.36 9.66 -9 10 C-8.67 8.68 -8.34 7.36 -8 6 C-7.34 6 -6.68 6 -6 6 C-6 5.34 -6 4.68 -6 4 C-2.47058824 0 -2.47058824 0 0 0 Z " fill="#F7850D" transform="translate(745,329)"/>
<path d="M0 0 C0.66 0.66 1.32 1.32 2 2 C1.26394531 2.59167969 0.52789062 3.18335938 -0.23046875 3.79296875 C-1.20628906 4.58316406 -2.18210937 5.37335938 -3.1875 6.1875 C-4.63189453 7.35345703 -4.63189453 7.35345703 -6.10546875 8.54296875 C-9.91082628 11.77315753 -13.29023431 15.12644223 -16.4375 19 C-19.10289316 22.12046029 -21.79197389 24.46342121 -25 27 C-25.66 26.34 -26.32 25.68 -27 25 C-8.76786674 6.35508769 -8.76786674 6.35508769 0 0 Z " fill="#FEA210" transform="translate(394,334)"/>
<path d="M0 0 C0.66 0.33 1.32 0.66 2 1 C0.10038671 4.41538084 -1.80199441 7.82920416 -3.70678711 11.24169922 C-4.66726938 12.96372892 -5.62564974 14.68693044 -6.58398438 16.41015625 C-9.91455129 22.37378915 -13.31393122 28.24888695 -17 34 C-17.99 33.67 -18.98 33.34 -20 33 C-19.67 32.34 -19.34 31.68 -19 31 C-18.34 31 -17.68 31 -17 31 C-17 30.01 -17 29.02 -17 28 C-16.34 28 -15.68 28 -15 28 C-14.773125 27.236875 -14.54625 26.47375 -14.3125 25.6875 C-13.1841486 22.51736988 -11.96666326 19.45876139 -10.625 16.375 C-10.22539063 15.45460938 -9.82578125 14.53421875 -9.4140625 13.5859375 C-7.91897464 10.85182655 -6.23504415 9.14670248 -4 7 C-2.72588164 5.12680014 -2.72588164 5.12680014 -1.75 3.25 C-1.1725 2.1775 -0.595 1.105 0 0 Z " fill="#F4750D" transform="translate(574,766)"/>
<path d="M0 0 C6.20727249 -0.02489804 12.41451528 -0.04295304 18.62182617 -0.05493164 C20.72925321 -0.05993051 22.83667682 -0.06673181 24.9440918 -0.07543945 C27.99008024 -0.08770131 31.03602245 -0.09327292 34.08203125 -0.09765625 C35.47335014 -0.10539818 35.47335014 -0.10539818 36.89277649 -0.11329651 C43.3109638 -0.11383508 49.61874248 0.32061834 56 1 C56 1.33 56 1.66 56 2 C55.22285645 1.99476318 54.44571289 1.98952637 53.64501953 1.98413086 C50.13835451 1.96339844 46.63170237 1.95035179 43.125 1.9375 C41.90167969 1.92912109 40.67835938 1.92074219 39.41796875 1.91210938 C38.25136719 1.90888672 37.08476563 1.90566406 35.8828125 1.90234375 C34.80402832 1.89710693 33.72524414 1.89187012 32.61376953 1.88647461 C30.01767814 1.82116894 30.01767814 1.82116894 28 3 C26.32815382 2.69370074 24.66201654 2.35579476 23 2 C21.16252459 1.85917098 19.32192549 1.75560602 17.48046875 1.68359375 C16.45888672 1.64169922 15.43730469 1.59980469 14.38476562 1.55664062 C13.32966797 1.51732422 12.27457031 1.47800781 11.1875 1.4375 C9.57584961 1.37272461 9.57584961 1.37272461 7.93164062 1.30664062 C5.28787918 1.20089017 2.6440289 1.09879767 0 1 C0 0.67 0 0.34 0 0 Z " fill="#FD9804" transform="translate(499,130)"/>
<path d="M0 0 C7.44054795 6.97470495 13.00796442 16.62739472 17 26 C16.67 26.99 16.34 27.98 16 29 C12 23.375 12 23.375 12 20 C11.01 20 10.02 20 9 20 C8.87625 19.030625 8.7525 18.06125 8.625 17.0625 C8.41875 16.051875 8.2125 15.04125 8 14 C7.34 13.67 6.68 13.34 6 13 C5.34 12.01 4.68 11.02 4 10 C3.34 10 2.68 10 2 10 C1.855625 8.906875 1.71125 7.81375 1.5625 6.6875 C1.11711896 3.06877013 1.11711896 3.06877013 0 0 Z " fill="#FA8D10" transform="translate(727,205)"/>
<path d="M0 0 C0.66 0 1.32 0 2 0 C0.96620783 6.26937995 -1.76916646 11.78159829 -4.3125 17.5625 C-4.79912109 18.69880859 -5.28574219 19.83511719 -5.78710938 21.00585938 C-6.26599609 22.09833984 -6.74488281 23.19082031 -7.23828125 24.31640625 C-7.67180908 25.31099854 -8.10533691 26.30559082 -8.55200195 27.33032227 C-10.04925365 30.09080909 -11.67667238 31.90884994 -14 34 C-14.495 32.515 -14.495 32.515 -15 31 C-13.68 30.34 -12.36 29.68 -11 29 C-11 27.35 -11 25.7 -11 24 C-10.34 23.67 -9.68 23.34 -9 23 C-8.31527335 21.11235097 -8.31527335 21.11235097 -7.875 18.9375 C-7.70742188 18.20402344 -7.53984375 17.47054687 -7.3671875 16.71484375 C-7.24601563 16.14894531 -7.12484375 15.58304688 -7 15 C-6.34 15 -5.68 15 -5 15 C-4.690625 13.741875 -4.38125 12.48375 -4.0625 11.1875 C-3.08676284 7.21950221 -1.88098916 3.63657905 0 0 Z " fill="#F2710B" transform="translate(531,843)"/>
<path d="M0 0 C0.33 0.66 0.66 1.32 1 2 C-0.19995117 4.51855469 -0.19995117 4.51855469 -2.04296875 7.671875 C-2.70490234 8.81140625 -3.36683594 9.9509375 -4.04882812 11.125 C-4.76170412 12.33334197 -5.47459487 13.54167523 -6.1875 14.75 C-6.88155431 15.94230407 -7.57492203 17.1350081 -8.26757812 18.328125 C-14.46863523 28.96124777 -14.46863523 28.96124777 -18 34 C-18.33 34 -18.66 34 -19 34 C-19.1875 31.625 -19.1875 31.625 -19 29 C-18.01 28.34 -17.02 27.68 -16 27 C-14.55797441 24.96485688 -14.55797441 24.96485688 -13.3125 22.625 C-12.87550781 21.85414063 -12.43851563 21.08328125 -11.98828125 20.2890625 C-10.73574934 17.80348989 -10.73574934 17.80348989 -11 14 C-10.01 13.67 -9.02 13.34 -8 13 C-6.49486063 10.83294466 -5.13645516 8.70953155 -3.8125 6.4375 C-3.44447266 5.82197266 -3.07644531 5.20644531 -2.69726562 4.57226562 C-1.790321 3.05283891 -0.89411832 1.52700967 0 0 Z " fill="#F5720B" transform="translate(595,731)"/>
<path d="M0 0 C0.33 0 0.66 0 1 0 C0.73414947 10.35487808 -0.3929627 19.20228007 -4 29 C-4.66 27.68 -5.32 26.36 -6 25 C-5.34 25 -4.68 25 -4 25 C-4.02320313 24.40832031 -4.04640625 23.81664062 -4.0703125 23.20703125 C-4.08835937 22.41683594 -4.10640625 21.62664063 -4.125 20.8125 C-4.14820313 20.03519531 -4.17140625 19.25789062 -4.1953125 18.45703125 C-3.97098581 15.63500143 -3.08129115 13.60781982 -2 11 C-1.57851125 9.07207923 -1.20323562 7.1334683 -0.875 5.1875 C-0.70742188 4.21167969 -0.53984375 3.23585938 -0.3671875 2.23046875 C-0.24601563 1.49441406 -0.12484375 0.75835937 0 0 Z " fill="#F57B0D" transform="translate(702,511)"/>
<path d="M0 0 C0.99 0.495 0.99 0.495 2 1 C2.625 4.0625 2.625 4.0625 3 7 C3.99 7.33 4.98 7.66 6 8 C6.33 9.98 6.66 11.96 7 14 C7.66 14 8.32 14 9 14 C9.99 17.96 10.98 21.92 12 26 C8.49426318 22.49426318 6.93503214 19.12826525 4.875 14.6875 C4.51535156 13.94048828 4.15570313 13.19347656 3.78515625 12.42382812 C1.84220728 8.27959802 0.48340062 4.60695439 0 0 Z " fill="#F57508" transform="translate(494,850)"/>
<path d="M0 0 C0.99 0.33 1.98 0.66 3 1 C2.34 2.65 1.68 4.3 1 6 C0.34 6 -0.32 6 -1 6 C-1.226875 6.66 -1.45375 7.32 -1.6875 8 C-3.3878815 11.88658628 -5.39623084 15.63679817 -8 19 C-8.66 19 -9.32 19 -10 19 C-8.40376856 14.60616294 -6.21975667 10.71004193 -3.875 6.6875 C-3.50246094 6.04232422 -3.12992187 5.39714844 -2.74609375 4.73242188 C-1.83367787 3.15324055 -0.91724491 1.57638136 0 0 Z " fill="#FDA214" transform="translate(352,379)"/>
<path d="M0 0 C0 0.99 0 1.98 0 3 C-1.66666667 4.66666667 -3.33333333 6.33333333 -5 8 C-5.350625 8.886875 -5.70125 9.77375 -6.0625 10.6875 C-7 13 -7 13 -9.125 14.3125 C-10.053125 14.6528125 -10.053125 14.6528125 -11 15 C-11 11.0190051 -9.52101707 9.56203773 -7.1875 6.375 C-6.47980469 5.39273437 -5.77210938 4.41046875 -5.04296875 3.3984375 C-3 1 -3 1 0 0 Z " fill="#FEA614" transform="translate(366,363)"/>
<path d="M0 0 C4.875 2.75 4.875 2.75 6 5 C6.53625 5.4125 7.0725 5.825 7.625 6.25 C9 8 9 8 8.6875 11.1875 C8.460625 12.115625 8.23375 13.04375 8 14 C5.50447597 11.72402354 3.93377014 9.39278822 2.3125 6.4375 C1.87550781 5.65246094 1.43851562 4.86742187 0.98828125 4.05859375 C0 2 0 2 0 0 Z " fill="#F97C0B" transform="translate(471,807)"/>
<path d="M0 0 C0.33 0 0.66 0 1 0 C1.55552302 2.78956182 2.09487359 5.58060486 2.625 8.375 C2.86476563 9.56609375 2.86476563 9.56609375 3.109375 10.78125 C3.49318076 12.83984452 3.75508571 14.92030405 4 17 C3.34 17.66 2.68 18.32 2 19 C-1.17441612 12.27023784 -1.11388158 7.30062141 0 0 Z " fill="#FD991A" transform="translate(408,504)"/>
<path d="M0 0 C0.66 0 1.32 0 2 0 C1.53199289 4.05606165 1.12046792 7.46588679 -1 11 C-1.99 11 -2.98 11 -4 11 C-3.39301257 6.87248551 -1.96189209 3.6678852 0 0 Z " fill="#F47F0C" transform="translate(694,544)"/>
<path d="M0 0 C0.99 0 1.98 0 3 0 C1.54822555 4.11336093 -0.38124858 7.50833145 -3 11 C-3.99 11.33 -4.98 11.66 -6 12 C-6 11.34 -6 10.68 -6 10 C-5.34 9.67 -4.68 9.34 -4 9 C-3.7834375 8.13375 -3.7834375 8.13375 -3.5625 7.25 C-2.85121254 4.40485014 -1.71336386 2.37234997 0 0 Z " fill="#F6780D" transform="translate(601,718)"/>
<path d="M0 0 C0.66 0 1.32 0 2 0 C2.66 2.31 3.32 4.62 4 7 C4.99 7 5.98 7 7 7 C7 8.98 7 10.96 7 13 C7.66 13.33 8.32 13.66 9 14 C8.01 14.33 7.02 14.66 6 15 C4.99539469 12.87717331 3.99644398 10.75166979 3 8.625 C2.443125 7.44164062 1.88625 6.25828125 1.3125 5.0390625 C0 2 0 2 0 0 Z " fill="#F77709" transform="translate(486,834)"/>
<path d="M0 0 C5.94 1.485 5.94 1.485 12 3 C12 3.66 12 4.32 12 5 C13.32 5 14.64 5 16 5 C15.67 5.99 15.34 6.98 15 8 C12.68391382 7.04965754 10.3723643 6.09024942 8.0625 5.125 C7.40314453 4.85558594 6.74378906 4.58617187 6.06445312 4.30859375 C1.11328125 2.2265625 1.11328125 2.2265625 0 0 Z " fill="#F98711" transform="translate(657,321)"/>
<path d="M0 0 C0.33 0.99 0.66 1.98 1 3 C-5.435 3.495 -5.435 3.495 -12 4 C-11.67 3.01 -11.34 2.02 -11 1 C-3.375 0 -3.375 0 0 0 Z " fill="#FCA71A" transform="translate(448,134)"/>
<path d="M0 0 C-0.99 0.495 -0.99 0.495 -2 1 C-2.33 1.99 -2.66 2.98 -3 4 C-3 3.34 -3 2.68 -3 2 C-9.435 2.495 -9.435 2.495 -16 3 C-13.13771795 1.56885897 -11.00359672 0.59273118 -8 -0.1875 C-7.34 -0.36667969 -6.68 -0.54585938 -6 -0.73046875 C-3.73459024 -1.03576811 -2.164908 -0.68136613 0 0 Z " fill="#FDA11F" transform="translate(482,296)"/>
<path d="M0 0 C0 0.66 0 1.32 0 2 C-7.28571429 5.57142857 -7.28571429 5.57142857 -12 4 C-8.36043372 1.57362248 -4.44144233 0 0 0 Z " fill="#FDAA20" transform="translate(410,141)"/>
<path d="M0 0 C0.66 0.33 1.32 0.66 2 1 C2.4140625 3.28515625 2.4140625 3.28515625 2.625 6.0625 C2.69976562 6.98160156 2.77453125 7.90070312 2.8515625 8.84765625 C2.92503906 9.91306641 2.92503906 9.91306641 3 11 C2.01 11.495 2.01 11.495 1 12 C-1.27678571 3.96428571 -1.27678571 3.96428571 0 0 Z " fill="#FE9F15" transform="translate(328,539)"/>
<path d="M0 0 C1.485 0.99 1.485 0.99 3 2 C2.32829194 5.8063457 1.27253436 9.35206816 0 13 C-0.33 13 -0.66 13 -1 13 C-0.67 8.71 -0.34 4.42 0 0 Z " fill="#FAF1E4" transform="translate(704,504)"/>
<path d="M0 0 C1.1171875 1.703125 1.1171875 1.703125 2 4 C1.3203125 6.359375 1.3203125 6.359375 0.125 8.75 C-0.26429688 9.54921875 -0.65359375 10.3484375 -1.0546875 11.171875 C-1.36664063 11.77515625 -1.67859375 12.3784375 -2 13 C-2.66 12.01 -3.32 11.02 -4 10 C-3.3203125 7.51953125 -3.3203125 7.51953125 -2.125 4.8125 C-1.73570312 3.91144531 -1.34640625 3.01039063 -0.9453125 2.08203125 C-0.63335937 1.39496094 -0.32140625 0.70789063 0 0 Z " fill="#FEA516" transform="translate(338,404)"/>
<path d="M0 0 C0.99 0.33 1.98 0.66 3 1 C2.01 1.495 2.01 1.495 1 2 C0.61004898 3.86492402 0.61004898 3.86492402 0.5 6 C0.34375 8.1875 0.34375 8.1875 0 10 C-0.99 10.495 -0.99 10.495 -2 11 C-2.95465783 8.83032311 -3.14401212 7.43671207 -2.3984375 5.17578125 C-1.64129615 3.4315257 -0.82390802 1.71372869 0 0 Z " fill="#FDA817" transform="translate(277,238)"/>
<path d="M0 0 C1.41623216 -0.05447047 2.83308191 -0.09300508 4.25 -0.125 C5.03890625 -0.14820313 5.8278125 -0.17140625 6.640625 -0.1953125 C9.20731941 0.0171622 10.7916067 0.71345895 13 2 C7.96488101 3.0070238 4.76052962 2.97387813 0 1 C0 0.67 0 0.34 0 0 Z " fill="#FDA220" transform="translate(499,292)"/>
<path d="M0 0 C5.28 0 10.56 0 16 0 C16 0.33 16 0.66 16 1 C11.71 1 7.42 1 3 1 C3 1.66 3 2.32 3 3 C1.68 2.67 0.36 2.34 -1 2 C-0.67 1.34 -0.34 0.68 0 0 Z " fill="#FBF1DF" transform="translate(518,229)"/>
<path d="M0 0 C1.5625 1.75 1.5625 1.75 3 4 C2.6875 6.25 2.6875 6.25 2 8 C0.68 8.33 -0.64 8.66 -2 9 C-1.34 6.03 -0.68 3.06 0 0 Z " fill="#FEAB1F" transform="translate(330,424)"/>
<path d="M0 0 C2.72107452 2.3500189 3.96702492 4.55674975 5 8 C4.67 8.99 4.34 9.98 4 11 C1.9656541 9.58480285 1.09589607 8.45017877 0.578125 6.01953125 C0.33726048 4.01823046 0.16467259 2.0090056 0 0 Z " fill="#F9880C" transform="translate(744,235)"/>
<path d="M0 0 C0.99 0.33 1.98 0.66 3 1 C3.33 1.99 3.66 2.98 4 4 C3 5 3 5 -0.0625 5.0625 C-1.031875 5.041875 -2.00125 5.02125 -3 5 C-3.33 4.34 -3.66 3.68 -4 3 C-3.01 3 -2.02 3 -1 3 C-0.67 2.01 -0.34 1.02 0 0 Z " fill="#F27306" transform="translate(512,875)"/>
<path d="M0 0 C0.99 0.33 1.98 0.66 3 1 C3.33 1.99 3.66 2.98 4 4 C5.99665314 5.68538601 5.99665314 5.68538601 8 7 C6.02 7 4.04 7 2 7 C1.34 4.69 0.68 2.38 0 0 Z " fill="#F58210" transform="translate(505,872)"/>
<path d="M0 0 C0.99 0.33 1.98 0.66 3 1 C2.67 4.96 2.34 8.92 2 13 C1.67 13 1.34 13 1 13 C0.67 8.71 0.34 4.42 0 0 Z " fill="#F97E05" transform="translate(613,465)"/>
<path d="M0 0 C-0.66 1.65 -1.32 3.3 -2 5 C-2.33 4.34 -2.66 3.68 -3 3 C-3.99 3.33 -4.98 3.66 -6 4 C-6 3.34 -6 2.68 -6 2 C-6.66 1.67 -7.32 1.34 -8 1 C-5.10765685 0.17361624 -3.11257569 0 0 0 Z " fill="#FDA81F" transform="translate(424,138)"/>
<path d="M0 0 C0.66 0.66 1.32 1.32 2 2 C1.68134222 5.29279709 0.45484649 6.86535088 -2 9 C-1.125 2.25 -1.125 2.25 0 0 Z " fill="#FAF7ED" transform="translate(701,529)"/>
<path d="M0 0 C2.23551759 3.35327639 2.17283528 3.90743657 1.625 7.6875 C1.51414062 8.49574219 1.40328125 9.30398438 1.2890625 10.13671875 C1.19367188 10.75160156 1.09828125 11.36648438 1 12 C-1.58464442 7.61991557 -0.81479148 4.88874887 0 0 Z " fill="#FEAA24" transform="translate(324,446)"/>
<path d="M0 0 C1.125 1.75 1.125 1.75 2 4 C1.125 6.25 1.125 6.25 0 8 C-0.66 8 -1.32 8 -2 8 C-1.125 1.125 -1.125 1.125 0 0 Z " fill="#FDA111" transform="translate(333,418)"/>
<path d="M0 0 C0.33 1.32 0.66 2.64 1 4 C-0.98 4.66 -2.96 5.32 -5 6 C-5.33 5.34 -5.66 4.68 -6 4 C-4.02 2.68 -2.04 1.36 0 0 Z " fill="#FEA319" transform="translate(407,325)"/>
<path d="M0 0 C0.99 0 1.98 0 3 0 C2.46930939 3.82097239 1.50298434 6.06171403 -1 9 C-1 5.72724974 -0.70074844 3.153368 0 0 Z " fill="#F67C16" transform="translate(544,816)"/>
<path d="M0 0 C0.33 0.99 0.66 1.98 1 3 C-1.875 3.1875 -1.875 3.1875 -5 3 C-5.66 2.01 -6.32 1.02 -7 0 C-4.3333581 -1.33332095 -2.83319697 -0.67102033 0 0 Z " fill="#FC9915" transform="translate(564,300)"/>
<path d="M0 0 C-2.05233685 2.2477975 -3.00667261 3.0022242 -6 4 C-6.33 3.01 -6.66 2.02 -7 1 C-3.375 -1.125 -3.375 -1.125 0 0 Z " fill="#FEA51B" transform="translate(424,318)"/>
</svg>
